<svg width="66" height="58" viewBox="0 0 66 58" fill="none" xmlns="http://www.w3.org/2000/svg">
<rect x="60.8295" y="11.6776" width="6.47413" height="3.14378" transform="rotate(37 60.8295 11.6776)" fill="#FFED36" fill-opacity="0.35"/>
<rect x="34.3865" y="27.8372" width="12.3504" height="3.14378" transform="rotate(-102 34.3865 27.8372)" fill="#FC9E1C" fill-opacity="0.9"/>
<rect x="41.7318" y="55.7493" width="3.53602" height="3.14378" transform="rotate(-57 41.7318 55.7493)" fill="#480CA7" fill-opacity="0.45"/>
<circle cx="59.3641" cy="14.6194" r="1.47273" fill="#FFED36" fill-opacity="0.9"/>
<path d="M6.16648 11.6688L1.50586 13.7439L2.03913 8.67013L6.16648 11.6688Z" fill="#480CA7" fill-opacity="0.45"/>
<path d="M14.6802 25.612L13.3587 22.7782L16.1925 21.4568L17.5139 24.2906L14.6802 25.612Z" fill="#F62584" fill-opacity="0.9"/>
<path d="M27.5527 2.90065L29.8081 2.49052L30.9649 0.511412L31.375 2.76681L33.3541 3.9236L31.0987 4.33372L29.9419 6.31283L29.5318 4.05743L27.5527 2.90065Z" fill="#DCBCFA" fill-opacity="0.65"/>
<path d="M13.388 45.5231L14.3019 44.8267L14.3682 43.6795L15.0646 44.5935L16.2118 44.6598L15.2978 45.3562L15.2315 46.5033L14.5351 45.5893L13.388 45.5231Z" fill="#FC9E1C" fill-opacity="0.85"/>
</svg>
